Coordinates
version=1
nRows=26
nColumns=22
inDegrees=yes

Units are S.I. units (second, meters, Newtons, ...)
If the header above contains a line with 'inDegrees', this indicates whether rotational values are in degrees (yes) or radians (no).

endheader
time	pelvis_tilt	pelvis_list	pelvis_rotation	pelvis_tx	pelvis_ty	pelvis_tz	hip_flexion_r	hip_adduction_r	hip_rotation_r	knee_angle_r	ankle_angle_r	subtalar_angle_r	hip_flexion_l	hip_adduction_l	hip_rotation_l	knee_angle_l	ankle_angle_l	subtalar_angle_l	lumbar_extension	lumbar_bending	lumbar_rotation
      1.42000000	     -3.97013902	      6.39759864	   -228.62375933	     -0.62377822	      0.90647333	      0.77859159	    -19.67300648	     13.55611314	     11.52764370	    -18.29336461	     17.65566056	     -9.25492548	     23.65835742	     -3.89627483	     -0.59479239	    -17.79696682	     10.67922307	      2.17536503	    -15.70718272	      3.05431489	     -8.43285707
      1.43000000	     -3.99739612	      6.23041664	   -229.00087193	     -0.63165825	      0.90524249	      0.76984664	    -19.72968469	     13.34813438	     11.43304493	    -19.51742076	     17.15672957	     -8.53971419	     23.88544801	     -3.26824687	      1.06076720	    -18.99834670	     10.26529210	      1.42870372	    -15.53898854	      2.83921152	     -8.55004711
      1.44000000	     -4.01749255	      6.03428368	   -229.41019772	     -0.63959648	      0.90429724	      0.76080324	    -19.70498682	     13.11034155	     11.36599961	    -20.82027709	     16.35034125	     -7.55774995	     24.10750326	     -2.63720213	      2.74498121	    -20.39778235	      9.69182217	      0.46038863	    -15.31361457	      2.59522883	     -8.65675168
      1.45000000	     -4.03118095	      5.82440656	   -229.82845833	     -0.64761483	      0.90363445	      0.75149651	    -19.59689514	     12.84720919	     11.21842097	    -22.20413379	     15.24941158	     -6.39469047	     24.31926475	     -2.00662252	      4.39354076	    -21.93219974	      9.06888816	     -0.59146406	    -15.04188308	      2.34138909	     -8.78768643
      1.46000000	     -4.04732112	      5.61479304	   -230.28372036	     -0.65565224	      0.90330788	      0.74188958	    -19.43195534	     12.54860106	     11.03802334	    -23.63977638	     13.78860259	     -4.99149155	     24.48597528	     -1.40859075	      5.87089525	    -23.51854992	      8.47706376	     -1.71791133	    -14.74325959	      2.07324245	     -8.91916950
      1.47000000	     -4.06964185	      5.42232037	   -230.78557445	     -0.66366180	      0.90333826	      0.73198224	    -19.22129293	     12.21494146	     10.82814168	    -25.11773025	     11.93793899	     -3.35043332	     24.58346642	     -0.87724909	      7.08685917	    -25.09982800	      8.02725841	     -2.87220809	    -14.43625259	      1.80024946	     -9.05088831
      1.48000000	     -4.09737665	      5.25391372	   -231.34179871	     -0.67157479	      0.90371534	      0.72176321	    -18.96094705	     11.84882309	     10.59523914	    -26.63406678	      9.68334119	     -1.51941774	     24.60053883	     -0.44649511	      7.96846661	    -26.63832430	      7.82227894	     -4.00255878	    -14.12837797	      1.52111299	     -9.18345293
      1.49000000	     -4.14628785	      5.12941243	   -231.96497312	     -0.67933010	      0.90446259	      0.71127723	    -18.66128714	     11.44314772	     10.35778378	    -28.19651717	      7.02698196	      0.50117301	     24.49206485	     -0.13810522	      8.47999442	    -28.08297021	      7.89209445	     -5.07534599	    -13.85903831	      1.23917246	     -9.29970024
      1.50000000	     -4.20965628	      5.04607162	   -232.65072494	     -0.68687377	      0.90552299	      0.70060241	    -18.28591421	     11.00436037	     10.11353335	    -29.83376751	      4.03177887	      2.62235217	     24.25668281	      0.04135653	      8.64015661	    -29.40245452	      8.25159431	     -6.04339461	    -13.63256892	      0.96168614	     -9.40442691
      1.51000000	     -4.28657558	      4.99204280	   -233.39588402	     -0.69415933	      0.90683736	      0.68985021	    -17.78878516	     10.52888232	      9.86554859	    -31.58854397	      0.82042919	      4.74282080	     23.89006529	      0.10552061	      8.48991058	    -30.55312195	      8.85980175	     -6.87164239	    -13.45238385	      0.68796251	     -9.50026974
      1.52000000	     -4.36741275	      4.95155003	   -234.19873831	     -0.70112541	      0.90832613	      0.67916539	    -17.10107720	     10.02105983	      9.60833538	    -33.52738006	     -2.43382012	      6.77095479	     23.40534909	      0.07326716	      8.09144644	    -31.50488637	      9.63489510	     -7.54742376	    -13.32104293	      0.42212479	     -9.57907608
      1.53000000	     -4.43346456	      4.90713208	   -235.04354294	     -0.70776203	      0.90988518	      0.66864604	    -16.17488528	      9.50006003	      9.34947143	    -35.67458249	     -5.51149614	      8.57819640	     22.84546479	     -0.05064470	      7.44686043	    -32.27011999	     10.56512402	     -8.05929231	    -13.21957324	      0.18095672	     -9.70684043
      1.54000000	     -4.49903859	      4.83275144	   -235.94720634	     -0.71402745	      0.91147235	      0.65843096	    -14.94668712	      8.93265653	      9.07151912	    -38.09983978	     -8.17459874	     10.13389303	     22.20663131	     -0.20986614	      6.65462066	    -32.80477699	     11.51086905	     -8.42072989	    -13.15644259	     -0.06454687	     -9.78536515
      1.55000000	     -4.55305813	      4.72054398	   -236.89508678	     -0.71994913	      0.91302391	      0.64854855	    -13.41189217	      8.34185710	      8.79984421	    -40.77074060	    -10.24477497	     11.38279726	     21.52478580	     -0.40053044	      5.70270716	    -33.13959538	     12.46642214	     -8.65348627	    -13.11259238	     -0.29835293	     -9.89399969
      1.56000000	     -4.60839681	      4.56871155	   -237.88681050	     -0.72553466	      0.91453297	      0.63902548	    -11.59205659	      7.72765516	      8.56175477	    -43.63627510	    -11.60499084	     12.33030397	     20.80523230	     -0.59174435	      4.62828916	    -33.29240634	     13.37471266	     -8.79155403	    -13.09771480	     -0.53257652	    -10.02239463
      1.57000000	     -4.66962784	      4.39912482	   -238.91188822	     -0.73085258	      0.91604372	      0.62985994	     -9.54604530	      7.10682969	      8.37091270	    -46.60313630	    -12.25491520	     13.11257595	     20.01715340	     -0.75773057	      3.53169463	    -33.25112359	     14.23848553	     -8.89338360	    -13.12910392	     -0.75148557	    -10.13353414
      1.58000000	     -4.75292422	      4.22306548	   -239.98640759	     -0.73589560	      0.91758016	      0.62095717	     -7.34357427	      6.48334659	      8.26942718	    -49.56905921	    -12.16108739	     13.43864796	     19.16137825	     -0.89818075	      2.35712695	    -33.06035248	     14.99110087	     -8.91218684	    -13.21014009	     -0.97430526	    -10.22479954
      1.59000000	     -4.78402359	      4.01105330	   -241.03537631	     -0.74078906	      0.91902906	      0.61232223	     -4.96784603	      5.94566947	      8.23486546	    -52.42598321	    -11.49140855	     13.67806031	     18.35007302	     -1.01683746	      1.26186309	    -32.79027053	     15.75744592	     -9.01886373	    -13.24900835	     -1.12963043	    -10.40366238
      1.60000000	     -4.84782180	      3.86118213	   -242.10164225	     -0.74549675	      0.92067546	      0.60378285	     -2.62429884	      5.45642848	      8.29222131	    -55.05571150	    -10.35827500	     13.56280425	     17.40571307	     -1.11513252	      0.14641407	    -32.39235894	     16.38955508	     -9.10109244	    -13.37920378	     -1.26731688	    -10.57546235
      1.61000000	     -4.87636746	      3.73681028	   -243.12742972	     -0.75011545	      0.92239164	      0.59535246	     -0.27141404	      5.05680848	      8.34931524	    -57.40813974	     -8.91352680	     13.00591150	     16.43768201	     -1.20220160	     -0.86669753	    -31.93047532	     16.98600901	     -9.26063921	    -13.51190895	     -1.33487890	    -10.75358133
      1.62000000	     -4.89955691	      3.69970874	   -244.11797292	     -0.75462685	      0.92434264	      0.58689011	      1.95142702	      4.75969574	      8.43456783	    -59.39897328	     -7.25452750	     12.12210507	     15.34730109	     -1.30277403	     -1.85252947	    -31.37579457	     17.49124613	     -9.39473616	    -13.71055122	     -1.34380481	    -10.95805302
      1.63000000	     -4.89231392	      3.73668375	   -245.04929710	     -0.75905302	      0.92647738	      0.57839407	      4.04699546	      4.57030104	      8.48830832	    -61.01090561	     -5.49344821	     10.97182272	     14.17355636	     -1.42797368	     -2.78447353	    -30.75376238	     17.92642825	     -9.50613911	    -13.94415709	     -1.28257110	    -11.18096109
      1.64000000	     -4.84024290	      3.84576420	   -245.90229030	     -0.76342175	      0.92878897	      0.56983202	      5.99301287	      4.48883739	      8.46682054	    -62.21748127	     -3.72216211	      9.62771800	     12.91934587	     -1.59416712	     -3.66302202	    -30.05839246	     18.29650805	     -9.57677071	    -14.19700669	     -1.13808714	    -11.42173043
      1.65000000	     -4.75681875	      4.00519054	   -246.67366815	     -0.76772383	      0.93120727	      0.56122265	      7.79882941	      4.47526181	      8.33978692	    -63.03635061	     -2.02275942	      8.23459850	     11.60750802	     -1.78795156	     -4.52537818	    -29.30355667	     18.59140761	     -9.58835706	    -14.45568036	     -0.94337343	    -11.68229629
      1.66000000	     -4.62575200	      4.19910890	   -247.35303860	     -0.77196822	      0.93366952	      0.55258282	      9.47164038	      4.53190959	      8.09109810	    -63.46242305	     -0.44901351	      6.87113680	     10.25744431	     -2.01393603	     -5.32857123	    -28.48176740	     18.84358298	     -9.52425467	    -14.69960397	     -0.68768800	    -11.96038976
      1.67000000	     -4.45686326	      4.40278803	   -247.93435110	     -0.77616931	      0.93608005	      0.54393612	     11.03091983	      4.61802169	      7.69085093	    -63.51557218	      0.93688711	      5.65291698	      8.90246288	     -2.26012734	     -6.09080129	    -27.61515224	     19.05209818	     -9.37789802	    -14.90989392	     -0.39223447	    -12.26426643
